# This file uses centimeters as units for non-parametric coordinates.

mtllib Tail.mtl
g default
v -0.062750 0.618282 -1.000947
v 0.062250 0.618282 -1.000947
v -0.062750 0.618282 -0.502867
v 0.062250 0.618282 -0.502867
v -0.062750 0.743282 -0.502867
v 0.062250 0.743282 -0.502867
v -0.062750 0.743282 -1.000947
v 0.062250 0.743282 -1.000947
vt 0.172146 0.127754
vt 0.203094 0.127754
vt 0.203094 0.373179
vt 0.172146 0.373179
vt 0.172173 0.437167
vt 0.172173 0.375680
vt 0.203121 0.375680
vt 0.203121 0.437167
vt 0.265475 0.372433
vt 0.234527 0.372433
vt 0.234527 0.127007
vt 0.265475 0.127007
vt 0.203331 0.437060
vt 0.203331 0.375573
vt 0.234279 0.375573
vt 0.234279 0.437060
vt 0.203207 0.127083
vt 0.234156 0.127083
vt 0.234156 0.372508
vt 0.203207 0.372508
vt 0.140989 0.127214
vt 0.171937 0.127214
vt 0.171937 0.372640
vt 0.140989 0.372640
vn 0.000000 -1.000000 0.000000
vn 0.000000 -1.000000 0.000000
vn 0.000000 -1.000000 0.000000
vn 0.000000 -1.000000 0.000000
vn 0.000000 0.000000 1.000000
vn 0.000000 0.000000 1.000000
vn 0.000000 0.000000 1.000000
vn 0.000000 0.000000 1.000000
vn 0.000000 1.000000 -0.000000
vn 0.000000 1.000000 -0.000000
vn 0.000000 1.000000 -0.000000
vn 0.000000 1.000000 -0.000000
vn 0.000000 -0.000000 -1.000000
vn 0.000000 -0.000000 -1.000000
vn 0.000000 -0.000000 -1.000000
vn 0.000000 -0.000000 -1.000000
vn 1.000000 0.000000 0.000000
vn 1.000000 0.000000 0.000000
vn 1.000000 0.000000 0.000000
vn 1.000000 0.000000 0.000000
vn -1.000000 0.000000 0.000000
vn -1.000000 0.000000 0.000000
vn -1.000000 0.000000 0.000000
vn -1.000000 0.000000 0.000000
s off
g pasted__pCube1 group5
usemtl lambert2SG
f 1/1/1 2/2/2 4/3/3 3/4/4
f 3/5/5 4/6/6 6/7/7 5/8/8
f 5/9/9 6/10/10 8/11/11 7/12/12
f 7/13/13 8/14/14 2/15/15 1/16/16
f 2/17/17 8/18/18 6/19/19 4/20/20
f 7/21/21 1/22/22 3/23/23 5/24/24
