# This file uses centimeters as units for non-parametric coordinates.

mtllib Head.mtl
g Head_default1
v -0.093750 0.437500 0.624029
v -0.093750 0.625000 0.624029
v 0.093750 0.625000 0.624029
v -0.093750 0.625000 0.436529
v 0.093750 0.625000 0.436529
v -0.093750 0.437500 0.436529
v 0.093750 0.437500 0.436529
v -0.093750 0.437500 0.624029
v 0.093750 0.437500 0.624029
v -0.093750 0.625000 0.624029
v 0.093750 0.625000 0.624029
v -0.093750 0.625000 0.561750
v 0.093750 0.625000 0.436529
v -0.093750 0.437500 0.436529
v 0.093750 0.437500 0.436529
v 0.132281 0.740785 0.438210
v 0.257281 0.740785 0.438210
v 0.132281 0.865785 0.438210
v 0.257281 0.865785 0.438210
v 0.132281 0.865785 0.375710
v 0.257281 0.865785 0.375710
v 0.132281 0.740785 0.375710
v 0.257281 0.740785 0.375710
v -0.187500 0.437500 0.562500
v 0.187500 0.437500 0.562500
v -0.187500 0.812500 0.562500
v 0.187500 0.812500 0.562500
v -0.180761 0.812500 0.314328
v 0.194239 0.812500 0.314328
v -0.180761 0.437500 0.314328
v 0.194239 0.437500 0.314328
v -0.240189 0.746613 0.438250
v -0.115189 0.746613 0.438250
v -0.240189 0.871613 0.438250
v -0.115189 0.871613 0.438250
v -0.240189 0.871613 0.375750
v -0.115189 0.871613 0.375750
v -0.240189 0.746613 0.375750
v -0.115189 0.746613 0.375750
vt 0.437607 0.181933
vt 0.483058 0.181933
vt 0.483058 0.274655
vt 0.437607 0.274655
vt 0.218038 0.561986
vt 0.172587 0.561986
vt 0.172587 0.469264
vt 0.218038 0.469264
vt 0.457588 0.185125
vt 0.503039 0.185125
vt 0.503039 0.277847
vt 0.457588 0.277847
vt 0.380358 0.145700
vt 0.454326 0.145700
vt 0.454326 0.234564
vt 0.380358 0.234564
vt 0.338705 0.001992
vt 0.668185 0.001992
vt 0.668185 0.331472
vt 0.338705 0.331472
vt 0.947139 0.664740
vt 0.617659 0.664740
vt 0.617659 0.335260
vt 0.947139 0.335260
vt 0.562626 0.364818
vt 0.371682 0.364818
vt 0.371682 0.173874
vt 0.562626 0.173874
vt 0.415154 0.217518
vt 0.533184 0.217518
vt 0.533184 0.299090
vt 0.415154 0.299090
vt 0.338705 0.668528
vt 0.668185 0.668528
vt 0.668185 0.998008
vt 0.338705 0.998008
vt 0.265637 0.469504
vt 0.296390 0.469504
vt 0.296390 0.530610
vt 0.265637 0.530610
vt 0.296446 0.562259
vt 0.265863 0.562259
vt 0.265864 0.531403
vt 0.296446 0.531403
vt 0.343471 0.530483
vt 0.312718 0.530483
vt 0.312718 0.469377
vt 0.343471 0.469377
vt 0.327805 0.562127
vt 0.297222 0.562127
vt 0.297222 0.531272
vt 0.327805 0.531272
vt 0.296960 0.469390
vt 0.312337 0.469390
vt 0.312337 0.530496
vt 0.296960 0.530496
vt 0.250156 0.469613
vt 0.265533 0.469613
vt 0.265533 0.530719
vt 0.250156 0.530719
vt 0.062563 0.688420
vt 0.156187 0.688420
vt 0.156187 0.874080
vt 0.062563 0.874080
vt 0.062784 0.875566
vt 0.156039 0.875566
vt 0.156039 0.998506
vt 0.062784 0.998506
vt 0.312111 0.874067
vt 0.219561 0.874067
vt 0.219561 0.688521
vt 0.312111 0.688521
vt 0.249039 0.875763
vt 0.157263 0.875763
vt 0.157263 0.999630
vt 0.249039 0.999630
vt 0.060148 0.688209
vt 0.001288 0.688209
vt 0.001288 0.873870
vt 0.060148 0.873870
vt 0.217334 0.689060
vt 0.157452 0.689060
vt 0.157452 0.874720
vt 0.217334 0.874720
vt 0.265637 0.469504
vt 0.296390 0.469504
vt 0.296390 0.530610
vt 0.265637 0.530610
vt 0.296446 0.562259
vt 0.265863 0.562259
vt 0.265864 0.531403
vt 0.296446 0.531403
vt 0.343471 0.530483
vt 0.312718 0.530483
vt 0.312718 0.469377
vt 0.343471 0.469377
vt 0.327805 0.562127
vt 0.297222 0.562127
vt 0.297222 0.531272
vt 0.327805 0.531272
vt 0.296960 0.469390
vt 0.312337 0.469390
vt 0.312337 0.530496
vt 0.296960 0.530496
vt 0.250156 0.469613
vt 0.265533 0.469613
vt 0.265533 0.530719
vt 0.250156 0.530719
vn 0.000000 1.000000 0.000000
vn 0.000000 1.000000 0.000000
vn 0.000000 1.000000 0.000000
vn 0.000000 1.000000 0.000000
vn 0.000000 0.000000 -1.000000
vn 0.000000 0.000000 -1.000000
vn 0.000000 0.000000 -1.000000
vn 0.000000 0.000000 -1.000000
vn -1.000000 0.000000 0.000000
vn -1.000000 0.000000 0.000000
vn -1.000000 0.000000 0.000000
vn -1.000000 0.000000 0.000000
vn 0.000000 0.000000 1.000000
vn 0.000000 0.000000 1.000000
vn 0.000000 0.000000 1.000000
vn 0.000000 0.000000 1.000000
vn 0.000000 1.000000 0.000000
vn 0.000000 1.000000 0.000000
vn 0.000000 1.000000 0.000000
vn 0.000000 1.000000 0.000000
vn 0.000000 0.000000 -1.000000
vn 0.000000 0.000000 -1.000000
vn 0.000000 0.000000 -1.000000
vn 0.000000 0.000000 -1.000000
vn 0.000000 -1.000000 0.000000
vn 0.000000 -1.000000 0.000000
vn 0.000000 -1.000000 0.000000
vn 0.000000 -1.000000 0.000000
vn 1.000000 0.000000 0.000000
vn 1.000000 0.000000 0.000000
vn 1.000000 0.000000 0.000000
vn 1.000000 0.000000 0.000000
vn -1.000000 0.000000 0.000000
vn -1.000000 0.000000 0.000000
vn -1.000000 0.000000 0.000000
vn -1.000000 0.000000 0.000000
vn 0.000000 0.000000 1.000000
vn 0.000000 0.000000 1.000000
vn 0.000000 0.000000 1.000000
vn 0.000000 0.000000 1.000000
vn 0.000000 1.000000 0.000000
vn 0.000000 1.000000 0.000000
vn 0.000000 1.000000 0.000000
vn 0.000000 1.000000 0.000000
vn 0.000000 0.000000 -1.000000
vn 0.000000 0.000000 -1.000000
vn 0.000000 0.000000 -1.000000
vn 0.000000 0.000000 -1.000000
vn 0.000000 -1.000000 0.000000
vn 0.000000 -1.000000 0.000000
vn 0.000000 -1.000000 0.000000
vn 0.000000 -1.000000 0.000000
vn 1.000000 0.000000 0.000000
vn 1.000000 0.000000 0.000000
vn 1.000000 0.000000 0.000000
vn 1.000000 0.000000 0.000000
vn -1.000000 0.000000 0.000000
vn -1.000000 0.000000 0.000000
vn -1.000000 0.000000 0.000000
vn -1.000000 0.000000 0.000000
vn 0.000000 0.000000 1.000000
vn 0.000000 0.000000 1.000000
vn 0.000000 0.000000 1.000000
vn 0.000000 0.000000 1.000000
vn 0.000000 1.000000 0.000000
vn 0.000000 1.000000 0.000000
vn 0.000000 1.000000 0.000000
vn 0.000000 1.000000 0.000000
vn 0.000000 0.000000 -1.000000
vn 0.000000 0.000000 -1.000000
vn 0.000000 0.000000 -1.000000
vn 0.000000 0.000000 -1.000000
vn 0.000000 -1.000000 0.000000
vn 0.000000 -1.000000 0.000000
vn 0.000000 -1.000000 0.000000
vn 0.000000 -1.000000 0.000000
vn 0.999632 0.000000 0.027145
vn 0.999632 0.000000 0.027145
vn 0.999632 0.000000 0.027145
vn 0.999632 0.000000 0.027145
vn -0.999632 0.000000 -0.027145
vn -0.999632 0.000000 -0.027145
vn -0.999632 0.000000 -0.027145
vn -0.999632 0.000000 -0.027145
vn 0.000000 0.000000 1.000000
vn 0.000000 0.000000 1.000000
vn 0.000000 0.000000 1.000000
vn 0.000000 0.000000 1.000000
vn 0.000000 1.000000 0.000000
vn 0.000000 1.000000 0.000000
vn 0.000000 1.000000 0.000000
vn 0.000000 1.000000 0.000000
vn 0.000000 0.000000 -1.000000
vn 0.000000 0.000000 -1.000000
vn 0.000000 0.000000 -1.000000
vn 0.000000 0.000000 -1.000000
vn 0.000000 -1.000000 0.000000
vn 0.000000 -1.000000 0.000000
vn 0.000000 -1.000000 0.000000
vn 0.000000 -1.000000 0.000000
vn 1.000000 0.000000 0.000000
vn 1.000000 0.000000 0.000000
vn 1.000000 0.000000 0.000000
vn 1.000000 0.000000 0.000000
vn -1.000000 0.000000 0.000000
vn -1.000000 0.000000 0.000000
vn -1.000000 0.000000 0.000000
vn -1.000000 0.000000 0.000000
s off
g pCube6 Head_polySurface1
usemtl initialShadingGroup
f 2/1/1 3/2/2 5/3/3 4/4/4
f 4/5/5 5/6/6 7/7/7 6/8/8
f 6/9/9 1/10/10 2/11/11 4/12/12
g group2 pasted__pCube6 Head_polySurface1
f 8/13/13 9/14/14 11/15/15 10/16/16
f 10/17/17 11/18/18 13/19/19 12/20/20
f 12/21/21 13/22/22 15/23/23 14/24/24
f 14/25/25 15/26/26 9/27/27 8/28/28
f 9/29/29 15/30/30 13/31/31 11/32/32
f 14/33/33 8/34/34 10/35/35 12/36/36
g pCube11 Head_polySurface1
f 16/37/37 17/38/38 19/39/39 18/40/40
f 18/41/41 19/42/42 21/43/43 20/44/44
f 20/45/45 21/46/46 23/47/47 22/48/48
f 22/49/49 23/50/50 17/51/51 16/52/52
f 17/53/53 23/54/54 21/55/55 19/56/56
f 22/57/57 16/58/58 18/59/59 20/60/60
g group3 pasted__pCube5 Head_polySurface1
f 24/61/61 25/62/62 27/63/63 26/64/64
f 26/65/65 27/66/66 29/67/67 28/68/68
f 28/69/69 29/70/70 31/71/71 30/72/72
f 30/73/73 31/74/74 25/75/75 24/76/76
f 25/77/77 31/78/78 29/79/79 27/80/80
f 30/81/81 24/82/82 26/83/83 28/84/84
g group10 pasted__pCube11 Head_polySurface1
f 32/85/85 33/86/86 35/87/87 34/88/88
f 34/89/89 35/90/90 37/91/91 36/92/92
f 36/93/93 37/94/94 39/95/95 38/96/96
f 38/97/97 39/98/98 33/99/99 32/100/100
f 33/101/101 39/102/102 37/103/103 35/104/104
f 38/105/105 32/106/106 34/107/107 36/108/108
