# This file uses centimeters as units for non-parametric coordinates.

mtllib Head.mtl
g default
v -0.093750 0.437500 0.749250
v 0.093750 0.437500 0.749250
v -0.093750 0.625000 0.749250
v 0.093750 0.625000 0.749250
v -0.093750 0.625000 0.561750
v 0.093750 0.625000 0.561750
v -0.093750 0.437500 0.561750
v 0.093750 0.437500 0.561750
vt 0.063212 0.469264
vt 0.108663 0.469264
vt 0.108663 0.561986
vt 0.063212 0.561986
vt 0.063212 0.563014
vt 0.108663 0.563014
vt 0.108663 0.655736
vt 0.063212 0.655736
vt 0.218038 0.561986
vt 0.172587 0.561986
vt 0.172587 0.469264
vt 0.218038 0.469264
vt 0.155538 0.655736
vt 0.110087 0.655736
vt 0.110087 0.563014
vt 0.155538 0.563014
vt 0.110087 0.469264
vt 0.155538 0.469264
vt 0.155538 0.561986
vt 0.110087 0.561986
vt 0.016337 0.469264
vt 0.061788 0.469264
vt 0.061788 0.561986
vt 0.016337 0.561986
vn 0.000000 0.000000 1.000000
vn 0.000000 0.000000 1.000000
vn 0.000000 0.000000 1.000000
vn 0.000000 0.000000 1.000000
vn 0.000000 1.000000 0.000000
vn 0.000000 1.000000 0.000000
vn 0.000000 1.000000 0.000000
vn 0.000000 1.000000 0.000000
vn 0.000000 0.000000 -1.000000
vn 0.000000 0.000000 -1.000000
vn 0.000000 0.000000 -1.000000
vn 0.000000 0.000000 -1.000000
vn 0.000000 -1.000000 0.000000
vn 0.000000 -1.000000 0.000000
vn 0.000000 -1.000000 0.000000
vn 0.000000 -1.000000 0.000000
vn 1.000000 0.000000 0.000000
vn 1.000000 0.000000 0.000000
vn 1.000000 0.000000 0.000000
vn 1.000000 0.000000 0.000000
vn -1.000000 0.000000 0.000000
vn -1.000000 0.000000 0.000000
vn -1.000000 0.000000 0.000000
vn -1.000000 0.000000 0.000000
s off
g pCube6
usemtl lambert2SG
f 1/1/1 2/2/2 4/3/3 3/4/4
f 3/5/5 4/6/6 6/7/7 5/8/8
f 5/9/9 6/10/10 8/11/11 7/12/12
f 7/13/13 8/14/14 2/15/15 1/16/16
f 2/17/17 8/18/18 6/19/19 4/20/20
f 7/21/21 1/22/22 3/23/23 5/24/24
g default
v -0.093750 0.437500 0.749250
v 0.093750 0.437500 0.749250
v -0.093750 0.625000 0.749250
v 0.093750 0.625000 0.749250
v -0.093750 0.625000 0.561750
v 0.093750 0.625000 0.561750
v -0.093750 0.437500 0.561750
v 0.093750 0.437500 0.561750
vt 0.001891 0.001992
vt 0.331371 0.001992
vt 0.331371 0.331472
vt 0.001891 0.331472
vt 0.338705 0.001992
vt 0.668185 0.001992
vt 0.668185 0.331472
vt 0.338705 0.331472
vt 0.947139 0.664740
vt 0.617659 0.664740
vt 0.617659 0.335260
vt 0.947139 0.335260
vt 0.611837 0.664740
vt 0.282357 0.664740
vt 0.282357 0.335260
vt 0.611837 0.335260
vt 0.001890 0.668528
vt 0.331370 0.668528
vt 0.331370 0.998008
vt 0.001890 0.998008
vt 0.338705 0.668528
vt 0.668185 0.668528
vt 0.668185 0.998008
vt 0.338705 0.998008
vn 0.000000 0.000000 1.000000
vn 0.000000 0.000000 1.000000
vn 0.000000 0.000000 1.000000
vn 0.000000 0.000000 1.000000
vn 0.000000 1.000000 0.000000
vn 0.000000 1.000000 0.000000
vn 0.000000 1.000000 0.000000
vn 0.000000 1.000000 0.000000
vn 0.000000 0.000000 -1.000000
vn 0.000000 0.000000 -1.000000
vn 0.000000 0.000000 -1.000000
vn 0.000000 0.000000 -1.000000
vn 0.000000 -1.000000 0.000000
vn 0.000000 -1.000000 0.000000
vn 0.000000 -1.000000 0.000000
vn 0.000000 -1.000000 0.000000
vn 1.000000 0.000000 0.000000
vn 1.000000 0.000000 0.000000
vn 1.000000 0.000000 0.000000
vn 1.000000 0.000000 0.000000
vn -1.000000 0.000000 0.000000
vn -1.000000 0.000000 0.000000
vn -1.000000 0.000000 0.000000
vn -1.000000 0.000000 0.000000
s off
g pasted__pCube6 group2
usemtl lambert2SG
f 9/25/25 10/26/26 12/27/27 11/28/28
f 11/29/29 12/30/30 14/31/31 13/32/32
f 13/33/33 14/34/34 16/35/35 15/36/36
f 15/37/37 16/38/38 10/39/39 9/40/40
f 10/41/41 16/42/42 14/43/43 12/44/44
f 15/45/45 9/46/46 11/47/47 13/48/48
g default
v 0.066500 0.812673 0.438250
v 0.191500 0.812673 0.438250
v 0.066500 0.937673 0.438250
v 0.191500 0.937673 0.438250
v 0.066500 0.937673 0.375750
v 0.191500 0.937673 0.375750
v 0.066500 0.812673 0.375750
v 0.191500 0.812673 0.375750
vt 0.265637 0.469504
vt 0.296390 0.469504
vt 0.296390 0.530610
vt 0.265637 0.530610
vt 0.296446 0.562259
vt 0.265863 0.562259
vt 0.265864 0.531403
vt 0.296446 0.531403
vt 0.343471 0.530483
vt 0.312718 0.530483
vt 0.312718 0.469377
vt 0.343471 0.469377
vt 0.327805 0.562127
vt 0.297222 0.562127
vt 0.297222 0.531272
vt 0.327805 0.531272
vt 0.296960 0.469390
vt 0.312337 0.469390
vt 0.312337 0.530496
vt 0.296960 0.530496
vt 0.250156 0.469613
vt 0.265533 0.469613
vt 0.265533 0.530719
vt 0.250156 0.530719
vn 0.000000 0.000000 1.000000
vn 0.000000 0.000000 1.000000
vn 0.000000 0.000000 1.000000
vn 0.000000 0.000000 1.000000
vn 0.000000 1.000000 0.000000
vn 0.000000 1.000000 0.000000
vn 0.000000 1.000000 0.000000
vn 0.000000 1.000000 0.000000
vn 0.000000 0.000000 -1.000000
vn 0.000000 0.000000 -1.000000
vn 0.000000 0.000000 -1.000000
vn 0.000000 0.000000 -1.000000
vn 0.000000 -1.000000 0.000000
vn 0.000000 -1.000000 0.000000
vn 0.000000 -1.000000 0.000000
vn 0.000000 -1.000000 0.000000
vn 1.000000 0.000000 0.000000
vn 1.000000 0.000000 0.000000
vn 1.000000 0.000000 0.000000
vn 1.000000 0.000000 0.000000
vn -1.000000 0.000000 0.000000
vn -1.000000 0.000000 0.000000
vn -1.000000 0.000000 0.000000
vn -1.000000 0.000000 0.000000
s off
g pCube11
usemtl lambert2SG
f 17/49/49 18/50/50 20/51/51 19/52/52
f 19/53/53 20/54/54 22/55/55 21/56/56
f 21/57/57 22/58/58 24/59/59 23/60/60
f 23/61/61 24/62/62 18/63/63 17/64/64
f 18/65/65 24/66/66 22/67/67 20/68/68
f 23/69/69 17/70/70 19/71/71 21/72/72
g default
v -0.187500 0.437500 0.562500
v 0.187500 0.437500 0.562500
v -0.187500 0.812500 0.562500
v 0.187500 0.812500 0.562500
v -0.180761 0.812500 0.314328
v 0.194239 0.812500 0.314328
v -0.180761 0.437500 0.314328
v 0.194239 0.437500 0.314328
vt 0.062563 0.688420
vt 0.156187 0.688420
vt 0.156187 0.874080
vt 0.062563 0.874080
vt 0.062784 0.875566
vt 0.156039 0.875566
vt 0.156039 0.998506
vt 0.062784 0.998506
vt 0.312111 0.874067
vt 0.219561 0.874067
vt 0.219561 0.688521
vt 0.312111 0.688521
vt 0.249039 0.875763
vt 0.157263 0.875763
vt 0.157263 0.999630
vt 0.249039 0.999630
vt 0.060148 0.688209
vt 0.001288 0.688209
vt 0.001288 0.873870
vt 0.060148 0.873870
vt 0.217334 0.689060
vt 0.157452 0.689060
vt 0.157452 0.874720
vt 0.217334 0.874720
vn 0.000000 0.000000 1.000000
vn 0.000000 0.000000 1.000000
vn 0.000000 0.000000 1.000000
vn 0.000000 0.000000 1.000000
vn 0.000000 1.000000 0.000000
vn 0.000000 1.000000 0.000000
vn 0.000000 1.000000 0.000000
vn 0.000000 1.000000 0.000000
vn 0.000000 0.000000 -1.000000
vn 0.000000 0.000000 -1.000000
vn 0.000000 0.000000 -1.000000
vn 0.000000 0.000000 -1.000000
vn 0.000000 -1.000000 0.000000
vn 0.000000 -1.000000 0.000000
vn 0.000000 -1.000000 0.000000
vn 0.000000 -1.000000 0.000000
vn 0.999632 0.000000 0.027145
vn 0.999632 0.000000 0.027145
vn 0.999632 0.000000 0.027145
vn 0.999632 0.000000 0.027145
vn -0.999632 0.000000 -0.027145
vn -0.999632 0.000000 -0.027145
vn -0.999632 0.000000 -0.027145
vn -0.999632 0.000000 -0.027145
s off
g pasted__pCube5 group3
usemtl lambert2SG
f 25/73/73 26/74/74 28/75/75 27/76/76
f 27/77/77 28/78/78 30/79/79 29/80/80
f 29/81/81 30/82/82 32/83/83 31/84/84
f 31/85/85 32/86/86 26/87/87 25/88/88
f 26/89/89 32/90/90 30/91/91 28/92/92
f 31/93/93 25/94/94 27/95/95 29/96/96
g default
v -0.183500 0.812673 0.438250
v -0.058500 0.812673 0.438250
v -0.183500 0.937673 0.438250
v -0.058500 0.937673 0.438250
v -0.183500 0.937673 0.375750
v -0.058500 0.937673 0.375750
v -0.183500 0.812673 0.375750
v -0.058500 0.812673 0.375750
vt 0.265637 0.469504
vt 0.296390 0.469504
vt 0.296390 0.530610
vt 0.265637 0.530610
vt 0.296446 0.562259
vt 0.265863 0.562259
vt 0.265864 0.531403
vt 0.296446 0.531403
vt 0.343471 0.530483
vt 0.312718 0.530483
vt 0.312718 0.469377
vt 0.343471 0.469377
vt 0.327805 0.562127
vt 0.297222 0.562127
vt 0.297222 0.531272
vt 0.327805 0.531272
vt 0.296960 0.469390
vt 0.312337 0.469390
vt 0.312337 0.530496
vt 0.296960 0.530496
vt 0.250156 0.469613
vt 0.265533 0.469613
vt 0.265533 0.530719
vt 0.250156 0.530719
vn 0.000000 0.000000 1.000000
vn 0.000000 0.000000 1.000000
vn 0.000000 0.000000 1.000000
vn 0.000000 0.000000 1.000000
vn 0.000000 1.000000 0.000000
vn 0.000000 1.000000 0.000000
vn 0.000000 1.000000 0.000000
vn 0.000000 1.000000 0.000000
vn 0.000000 0.000000 -1.000000
vn 0.000000 0.000000 -1.000000
vn 0.000000 0.000000 -1.000000
vn 0.000000 0.000000 -1.000000
vn 0.000000 -1.000000 0.000000
vn 0.000000 -1.000000 0.000000
vn 0.000000 -1.000000 0.000000
vn 0.000000 -1.000000 0.000000
vn 1.000000 0.000000 0.000000
vn 1.000000 0.000000 0.000000
vn 1.000000 0.000000 0.000000
vn 1.000000 0.000000 0.000000
vn -1.000000 0.000000 0.000000
vn -1.000000 0.000000 0.000000
vn -1.000000 0.000000 0.000000
vn -1.000000 0.000000 0.000000
s off
g pasted__pCube11 group9
usemtl pasted__lambert2SG3
f 33/97/97 34/98/98 36/99/99 35/100/100
f 35/101/101 36/102/102 38/103/103 37/104/104
f 37/105/105 38/106/106 40/107/107 39/108/108
f 39/109/109 40/110/110 34/111/111 33/112/112
f 34/113/113 40/114/114 38/115/115 36/116/116
f 39/117/117 33/118/118 35/119/119 37/120/120
g default
v -0.183500 0.812673 0.438250
v -0.058500 0.812673 0.438250
v -0.183500 0.937673 0.438250
v -0.058500 0.937673 0.438250
v -0.183500 0.937673 0.375750
v -0.058500 0.937673 0.375750
v -0.183500 0.812673 0.375750
v -0.058500 0.812673 0.375750
vt 0.265637 0.469504
vt 0.296390 0.469504
vt 0.296390 0.530610
vt 0.265637 0.530610
vt 0.296446 0.562259
vt 0.265863 0.562259
vt 0.265864 0.531403
vt 0.296446 0.531403
vt 0.343471 0.530483
vt 0.312718 0.530483
vt 0.312718 0.469377
vt 0.343471 0.469377
vt 0.327805 0.562127
vt 0.297222 0.562127
vt 0.297222 0.531272
vt 0.327805 0.531272
vt 0.296960 0.469390
vt 0.312337 0.469390
vt 0.312337 0.530496
vt 0.296960 0.530496
vt 0.250156 0.469613
vt 0.265533 0.469613
vt 0.265533 0.530719
vt 0.250156 0.530719
vn 0.000000 0.000000 1.000000
vn 0.000000 0.000000 1.000000
vn 0.000000 0.000000 1.000000
vn 0.000000 0.000000 1.000000
vn 0.000000 1.000000 0.000000
vn 0.000000 1.000000 0.000000
vn 0.000000 1.000000 0.000000
vn 0.000000 1.000000 0.000000
vn 0.000000 0.000000 -1.000000
vn 0.000000 0.000000 -1.000000
vn 0.000000 0.000000 -1.000000
vn 0.000000 0.000000 -1.000000
vn 0.000000 -1.000000 0.000000
vn 0.000000 -1.000000 0.000000
vn 0.000000 -1.000000 0.000000
vn 0.000000 -1.000000 0.000000
vn 1.000000 0.000000 0.000000
vn 1.000000 0.000000 0.000000
vn 1.000000 0.000000 0.000000
vn 1.000000 0.000000 0.000000
vn -1.000000 0.000000 0.000000
vn -1.000000 0.000000 0.000000
vn -1.000000 0.000000 0.000000
vn -1.000000 0.000000 0.000000
s off
g pasted__pCube11 group10
usemtl pasted__lambert2SG4
f 41/121/121 42/122/122 44/123/123 43/124/124
f 43/125/125 44/126/126 46/127/127 45/128/128
f 45/129/129 46/130/130 48/131/131 47/132/132
f 47/133/133 48/134/134 42/135/135 41/136/136
f 42/137/137 48/138/138 46/139/139 44/140/140
f 47/141/141 41/142/142 43/143/143 45/144/144
