# This file uses centimeters as units for non-parametric coordinates.

mtllib LeftArm.mtl
g default
v -0.250000 0.750000 -0.125000
v -0.500000 0.750000 -0.125000
v -0.250000 1.500000 -0.125000
v -0.500000 1.500000 -0.125000
v -0.250000 1.500000 0.125000
v -0.500000 1.500000 0.125000
v -0.250000 0.750000 0.125000
v -0.500000 0.750000 0.125000
vt 0.814643 0.004903
vt 0.872737 0.004903
vt 0.872737 0.369704
vt 0.814643 0.369704
vt 0.749000 0.375000
vt 0.687500 0.375000
vt 0.687500 0.499000
vt 0.749000 0.499000
vt 0.748704 0.370848
vt 0.687500 0.370848
vt 0.687500 0.006048
vt 0.748704 0.006048
vt 0.810802 0.498830
vt 0.752707 0.498830
vt 0.752707 0.377230
vt 0.810802 0.377230
vt 0.627700 0.006048
vt 0.685795 0.006048
vt 0.685795 0.370848
vt 0.627700 0.370848
vt 0.751809 0.006898
vt 0.809904 0.006898
vt 0.809904 0.371699
vt 0.751809 0.371699
vn 0.000000 0.000000 -1.000000
vn 0.000000 0.000000 -1.000000
vn 0.000000 0.000000 -1.000000
vn 0.000000 0.000000 -1.000000
vn -0.000000 1.000000 0.000000
vn -0.000000 1.000000 0.000000
vn -0.000000 1.000000 0.000000
vn -0.000000 1.000000 0.000000
vn -0.000000 0.000000 1.000000
vn -0.000000 0.000000 1.000000
vn -0.000000 0.000000 1.000000
vn -0.000000 0.000000 1.000000
vn -0.000000 -1.000000 0.000000
vn -0.000000 -1.000000 0.000000
vn -0.000000 -1.000000 0.000000
vn -0.000000 -1.000000 0.000000
vn -1.000000 0.000000 -0.000000
vn -1.000000 0.000000 -0.000000
vn -1.000000 0.000000 -0.000000
vn -1.000000 0.000000 -0.000000
vn 1.000000 0.000000 -0.000000
vn 1.000000 0.000000 -0.000000
vn 1.000000 0.000000 -0.000000
vn 1.000000 0.000000 -0.000000
s off
g pCube6
usemtl lambert3SG
f 1/1/1 2/2/2 4/3/3 3/4/4
f 3/5/5 4/6/6 6/7/7 5/8/8
f 5/9/9 6/10/10 8/11/11 7/12/12
f 7/13/13 8/14/14 2/15/15 1/16/16
f 2/17/17 8/18/18 6/19/19 4/20/20
f 7/21/21 1/22/22 3/23/23 5/24/24
