# This file uses centimeters as units for non-parametric coordinates.

mtllib Head.mtl
g default
v 0.250000 1.500000 -0.250000
v -0.250000 1.500000 -0.250000
v 0.250000 2.000000 -0.250000
v -0.250000 2.000000 -0.250000
v 0.250000 2.000000 0.250000
v -0.250000 2.000000 0.250000
v 0.250000 1.500000 0.250000
v -0.250000 1.500000 0.250000
vt 0.377069 0.504084
vt 0.496463 0.504084
vt 0.496463 0.746965
vt 0.377069 0.746965
vt 0.127722 0.752527
vt 0.247115 0.752527
vt 0.247115 0.995408
vt 0.127722 0.995408
vt 0.247176 0.745703
vt 0.127783 0.745703
vt 0.127783 0.502822
vt 0.247176 0.502822
vt 0.371632 0.995712
vt 0.252238 0.995712
vt 0.252238 0.752831
vt 0.371632 0.752831
vt 0.004378 0.503124
vt 0.123772 0.503124
vt 0.123772 0.746005
vt 0.004378 0.746005
vt 0.252314 0.503687
vt 0.371708 0.503687
vt 0.371708 0.746569
vt 0.252314 0.746569
vn 0.000000 0.000000 -1.000000
vn 0.000000 0.000000 -1.000000
vn 0.000000 0.000000 -1.000000
vn 0.000000 0.000000 -1.000000
vn 0.000000 1.000000 -0.000000
vn 0.000000 1.000000 -0.000000
vn 0.000000 1.000000 -0.000000
vn 0.000000 1.000000 -0.000000
vn -0.000000 0.000000 1.000000
vn -0.000000 0.000000 1.000000
vn -0.000000 0.000000 1.000000
vn -0.000000 0.000000 1.000000
vn 0.000000 -1.000000 0.000000
vn 0.000000 -1.000000 0.000000
vn 0.000000 -1.000000 0.000000
vn 0.000000 -1.000000 0.000000
vn -1.000000 0.000000 -0.000000
vn -1.000000 0.000000 -0.000000
vn -1.000000 0.000000 -0.000000
vn -1.000000 0.000000 -0.000000
vn 1.000000 0.000000 0.000000
vn 1.000000 0.000000 0.000000
vn 1.000000 0.000000 0.000000
vn 1.000000 0.000000 0.000000
s off
g pCube1
usemtl lambert3SG
f 1/1/1 2/2/2 4/3/3 3/4/4
f 3/5/5 4/6/6 6/7/7 5/8/8
f 5/9/9 6/10/10 8/11/11 7/12/12
f 7/13/13 8/14/14 2/15/15 1/16/16
f 2/17/17 8/18/18 6/19/19 4/20/20
f 7/21/21 1/22/22 3/23/23 5/24/24
